<mxfile host="app.diagrams.net" modified="2023-10-06T05:32:01.595Z" agent="Mozilla/5.0 (Windows NT 10.0; Win64; x64) AppleWebKit/537.36 (KHTML, like Gecko) Chrome/117.0.0.0 Safari/537.36" etag="LsH-bTs0Sr5wIAw--w0M" version="22.0.3" type="device">
  <diagram name="Page-1" id="f-uft2WRxCJpDUiyndhv">
    <mxGraphModel dx="1459" dy="565" grid="0" gridSize="10" guides="1" tooltips="1" connect="1" arrows="1" fold="1" page="0" pageScale="1" pageWidth="827" pageHeight="1169" math="0" shadow="0">
      <root>
        <mxCell id="0" />
        <mxCell id="1" parent="0" />
        <mxCell id="Wau2XaLZQkD78guUxSRD-139" value="" style="endArrow=none;html=1;rounded=0;entryX=0.5;entryY=0;entryDx=0;entryDy=0;strokeWidth=2;" parent="1" edge="1">
          <mxGeometry width="50" height="50" relative="1" as="geometry">
            <mxPoint x="93.5" y="302" as="sourcePoint" />
            <mxPoint x="94.5" y="171.00000000000006" as="targetPoint" />
          </mxGeometry>
        </mxCell>
        <mxCell id="Wau2XaLZQkD78guUxSRD-140" value="" style="endArrow=none;html=1;rounded=0;entryX=0.5;entryY=0;entryDx=0;entryDy=0;strokeWidth=2;" parent="1" edge="1">
          <mxGeometry width="50" height="50" relative="1" as="geometry">
            <mxPoint x="163.5" y="301" as="sourcePoint" />
            <mxPoint x="164.5" y="170.00000000000006" as="targetPoint" />
          </mxGeometry>
        </mxCell>
        <mxCell id="Wau2XaLZQkD78guUxSRD-136" value="" style="endArrow=none;html=1;rounded=0;entryX=0.005;entryY=0.377;entryDx=0;entryDy=0;entryPerimeter=0;exitX=0.979;exitY=0.657;exitDx=0;exitDy=0;exitPerimeter=0;" parent="1" source="Wau2XaLZQkD78guUxSRD-89" target="Wau2XaLZQkD78guUxSRD-78" edge="1">
          <mxGeometry width="50" height="50" relative="1" as="geometry">
            <mxPoint x="221.25" y="446" as="sourcePoint" />
            <mxPoint x="299.25" y="446" as="targetPoint" />
          </mxGeometry>
        </mxCell>
        <mxCell id="Wau2XaLZQkD78guUxSRD-135" value="" style="endArrow=none;html=1;rounded=0;exitX=0.976;exitY=0.392;exitDx=0;exitDy=0;exitPerimeter=0;entryX=0.016;entryY=0.643;entryDx=0;entryDy=0;entryPerimeter=0;" parent="1" source="Wau2XaLZQkD78guUxSRD-89" target="Wau2XaLZQkD78guUxSRD-78" edge="1">
          <mxGeometry width="50" height="50" relative="1" as="geometry">
            <mxPoint x="221.25" y="429" as="sourcePoint" />
            <mxPoint x="299" y="448" as="targetPoint" />
          </mxGeometry>
        </mxCell>
        <mxCell id="Wau2XaLZQkD78guUxSRD-134" value="" style="endArrow=none;html=1;rounded=0;entryX=0.001;entryY=0.693;entryDx=0;entryDy=0;entryPerimeter=0;exitX=1.01;exitY=0.709;exitDx=0;exitDy=0;exitPerimeter=0;" parent="1" edge="1">
          <mxGeometry width="50" height="50" relative="1" as="geometry">
            <mxPoint x="221.5" y="464" as="sourcePoint" />
            <mxPoint x="299.5" y="464" as="targetPoint" />
          </mxGeometry>
        </mxCell>
        <mxCell id="Wau2XaLZQkD78guUxSRD-133" value="" style="endArrow=none;html=1;rounded=0;entryX=0.001;entryY=0.693;entryDx=0;entryDy=0;entryPerimeter=0;exitX=1.01;exitY=0.709;exitDx=0;exitDy=0;exitPerimeter=0;" parent="1" edge="1">
          <mxGeometry width="50" height="50" relative="1" as="geometry">
            <mxPoint x="221.25000000000003" y="414.15599999999995" as="sourcePoint" />
            <mxPoint x="299.52599999999995" y="414.00045" as="targetPoint" />
          </mxGeometry>
        </mxCell>
        <mxCell id="Wau2XaLZQkD78guUxSRD-106" value="" style="endArrow=none;html=1;rounded=0;exitX=1;exitY=0.5;exitDx=0;exitDy=0;entryX=0;entryY=0.75;entryDx=0;entryDy=0;" parent="1" source="Wau2XaLZQkD78guUxSRD-96" target="Wau2XaLZQkD78guUxSRD-12" edge="1">
          <mxGeometry width="50" height="50" relative="1" as="geometry">
            <mxPoint x="629" y="437.21" as="sourcePoint" />
            <mxPoint x="651" y="437" as="targetPoint" />
          </mxGeometry>
        </mxCell>
        <mxCell id="Wau2XaLZQkD78guUxSRD-96" value="" style="rounded=0;whiteSpace=wrap;html=1;rotation=0;" parent="1" vertex="1">
          <mxGeometry x="492" y="404.04" width="120" height="70.65" as="geometry" />
        </mxCell>
        <mxCell id="Wau2XaLZQkD78guUxSRD-64" value="" style="whiteSpace=wrap;html=1;aspect=fixed;fillColor=#dae8fc;strokeColor=#6c8ebf;" parent="1" vertex="1">
          <mxGeometry x="36.75" y="301" width="184.5" height="184.5" as="geometry" />
        </mxCell>
        <mxCell id="Wau2XaLZQkD78guUxSRD-5" value="" style="shape=cylinder3;whiteSpace=wrap;html=1;boundedLbl=1;backgroundOutline=1;size=15;fillColor=#ffe6cc;strokeColor=#d79b00;" parent="1" vertex="1">
          <mxGeometry x="-106" y="69" width="98" height="126" as="geometry" />
        </mxCell>
        <mxCell id="Wau2XaLZQkD78guUxSRD-6" value="" style="rounded=0;whiteSpace=wrap;html=1;rotation=-180;fillColor=#f5f5f5;fontColor=#333333;strokeColor=#666666;" parent="1" vertex="1">
          <mxGeometry x="64" y="116" width="130" height="60" as="geometry" />
        </mxCell>
        <mxCell id="Wau2XaLZQkD78guUxSRD-8" value="" style="whiteSpace=wrap;html=1;aspect=fixed;fillColor=#FFF2CC;strokeColor=#d6b656;" parent="1" vertex="1">
          <mxGeometry x="713.5" y="77" width="122" height="122" as="geometry" />
        </mxCell>
        <mxCell id="Wau2XaLZQkD78guUxSRD-12" value="" style="whiteSpace=wrap;html=1;aspect=fixed;fillColor=#d5e8d4;strokeColor=#82b366;movable=1;resizable=1;rotatable=1;deletable=1;editable=1;locked=0;connectable=1;" parent="1" vertex="1">
          <mxGeometry x="651" y="301" width="184.5" height="184.5" as="geometry" />
        </mxCell>
        <mxCell id="Wau2XaLZQkD78guUxSRD-15" value="&lt;font style=&quot;font-size: 16px;&quot;&gt;12V&lt;/font&gt;" style="text;html=1;strokeColor=none;fillColor=none;align=center;verticalAlign=middle;whiteSpace=wrap;rounded=0;" parent="1" vertex="1">
          <mxGeometry x="258" y="120.5" width="60" height="30" as="geometry" />
        </mxCell>
        <mxCell id="Wau2XaLZQkD78guUxSRD-18" value="&lt;font style=&quot;font-size: 16px;&quot;&gt;5V&lt;/font&gt;" style="text;html=1;strokeColor=none;fillColor=none;align=center;verticalAlign=middle;whiteSpace=wrap;rounded=0;" parent="1" vertex="1">
          <mxGeometry x="585" y="120.5" width="60" height="30" as="geometry" />
        </mxCell>
        <mxCell id="Wau2XaLZQkD78guUxSRD-19" value="&lt;h1 style=&quot;box-sizing: border-box; padding: 0px; margin-top: 0px; margin-right: 0px; margin-left: 0px; text-rendering: optimizelegibility; font-weight: 400; color: rgb(15, 17, 17); font-family: &amp;quot;Amazon Ember&amp;quot;, Arial, sans-serif; line-height: 111%; margin-bottom: 0px !important;&quot; class=&quot;a-size-large a-spacing-none&quot;&gt;&lt;font style=&quot;font-size: 16px; background-color: rgb(255, 242, 204);&quot;&gt;Solar Charger Power Bank&lt;/font&gt;&lt;/h1&gt;" style="text;html=1;strokeColor=#FFF2CC;fillColor=#fff2cc;align=center;verticalAlign=middle;whiteSpace=wrap;rounded=0;" parent="1" vertex="1">
          <mxGeometry x="715" y="125" width="119" height="30" as="geometry" />
        </mxCell>
        <mxCell id="Wau2XaLZQkD78guUxSRD-28" value="&lt;h1 style=&quot;box-sizing: border-box; padding: 0px; margin-top: 0px; margin-right: 0px; margin-left: 0px; text-rendering: optimizelegibility; font-weight: 400; color: rgb(15, 17, 17); font-family: &amp;quot;Amazon Ember&amp;quot;, Arial, sans-serif; text-align: start; font-size: 16px; margin-bottom: 0px !important; line-height: 32px !important;&quot; class=&quot;a-size-large a-spacing-none&quot;&gt;&lt;span style=&quot;background-color: rgb(245, 245, 245);&quot;&gt;Transistor&lt;/span&gt;&lt;/h1&gt;" style="text;html=1;strokeColor=none;fillColor=none;align=center;verticalAlign=middle;whiteSpace=wrap;rounded=0;" parent="1" vertex="1">
          <mxGeometry x="99" y="131" width="60" height="30" as="geometry" />
        </mxCell>
        <mxCell id="Wau2XaLZQkD78guUxSRD-30" value="&lt;p style=&quot;line-height: 90%;&quot;&gt;&lt;br&gt;&lt;/p&gt;&lt;h1 style=&quot;box-sizing: border-box; padding: 0px; margin-top: 0px; margin-right: 0px; margin-left: 0px; text-rendering: optimizelegibility; font-weight: 400; color: rgb(15, 17, 17); font-family: &amp;quot;Amazon Ember&amp;quot;, Arial, sans-serif; line-height: 90%; margin-bottom: 0px !important;&quot; class=&quot;a-size-large a-spacing-none&quot;&gt;&lt;font style=&quot;font-size: 16px; background-color: rgb(255, 230, 204);&quot;&gt;Transfer Pump&lt;/font&gt;&lt;/h1&gt;&lt;p&gt;&lt;/p&gt;" style="text;html=1;strokeColor=#FFCC99;fillColor=#FFE6CC;align=center;verticalAlign=middle;whiteSpace=wrap;rounded=0;shadow=0;opacity=0;" parent="1" vertex="1">
          <mxGeometry x="-97.75" y="104" width="81.5" height="63" as="geometry" />
        </mxCell>
        <mxCell id="Wau2XaLZQkD78guUxSRD-42" value="&lt;font style=&quot;font-size: 16px;&quot;&gt;12V&lt;/font&gt;" style="text;html=1;strokeColor=none;fillColor=none;align=center;verticalAlign=middle;whiteSpace=wrap;rounded=0;" parent="1" vertex="1">
          <mxGeometry x="1" y="120.5" width="60" height="30" as="geometry" />
        </mxCell>
        <mxCell id="Wau2XaLZQkD78guUxSRD-43" value="&lt;font style=&quot;font-size: 16px;&quot;&gt;Arduino Nano&lt;/font&gt;" style="text;html=1;strokeColor=none;fillColor=none;align=center;verticalAlign=middle;whiteSpace=wrap;rounded=0;" parent="1" vertex="1">
          <mxGeometry x="76.5" y="350.25" width="105" height="30" as="geometry" />
        </mxCell>
        <mxCell id="Wau2XaLZQkD78guUxSRD-47" value="" style="endArrow=none;dashed=1;html=1;dashPattern=1 3;strokeWidth=2;rounded=0;entryX=0;entryY=0.5;entryDx=0;entryDy=0;exitX=1;exitY=0.5;exitDx=0;exitDy=0;" parent="1" source="Wau2XaLZQkD78guUxSRD-78" target="Wau2XaLZQkD78guUxSRD-96" edge="1">
          <mxGeometry width="50" height="50" relative="1" as="geometry">
            <mxPoint x="383" y="442" as="sourcePoint" />
            <mxPoint x="565.5" y="442" as="targetPoint" />
          </mxGeometry>
        </mxCell>
        <mxCell id="Wau2XaLZQkD78guUxSRD-49" value="&lt;font style=&quot;font-size: 16px;&quot;&gt;Server&lt;/font&gt;" style="text;html=1;strokeColor=none;fillColor=none;align=center;verticalAlign=middle;whiteSpace=wrap;rounded=0;" parent="1" vertex="1">
          <mxGeometry x="713.25" y="306" width="60" height="30" as="geometry" />
        </mxCell>
        <mxCell id="Wau2XaLZQkD78guUxSRD-50" value="&lt;font style=&quot;font-size: 16px;&quot;&gt;UART&lt;/font&gt;" style="text;html=1;strokeColor=none;fillColor=none;align=center;verticalAlign=middle;whiteSpace=wrap;rounded=0;" parent="1" vertex="1">
          <mxGeometry x="218" y="387.68" width="63" height="30" as="geometry" />
        </mxCell>
        <mxCell id="Wau2XaLZQkD78guUxSRD-67" value="" style="whiteSpace=wrap;html=1;aspect=fixed;fillColor=#f9f7ed;strokeColor=#36393d;movable=1;resizable=1;rotatable=1;deletable=1;editable=1;locked=0;connectable=1;" parent="1" vertex="1">
          <mxGeometry x="674.9" y="338" width="136.69" height="136.69" as="geometry" />
        </mxCell>
        <mxCell id="Wau2XaLZQkD78guUxSRD-68" value="&lt;font style=&quot;font-size: 16px;&quot;&gt;Docker Container&lt;/font&gt;" style="text;html=1;strokeColor=none;fillColor=none;align=center;verticalAlign=middle;whiteSpace=wrap;rounded=0;" parent="1" vertex="1">
          <mxGeometry x="675.87" y="343" width="134.75" height="30" as="geometry" />
        </mxCell>
        <mxCell id="Wau2XaLZQkD78guUxSRD-69" value="" style="whiteSpace=wrap;html=1;aspect=fixed;fillColor=#ffcccc;strokeColor=#36393d;movable=1;resizable=1;rotatable=1;deletable=1;editable=1;locked=0;connectable=1;" parent="1" vertex="1">
          <mxGeometry x="703.25" y="380.25" width="80" height="80" as="geometry" />
        </mxCell>
        <mxCell id="Wau2XaLZQkD78guUxSRD-70" value="&lt;font style=&quot;font-size: 16px;&quot;&gt;Web UI&lt;/font&gt;" style="text;html=1;strokeColor=none;fillColor=none;align=center;verticalAlign=middle;whiteSpace=wrap;rounded=0;" parent="1" vertex="1">
          <mxGeometry x="713.25" y="405.25" width="60" height="30" as="geometry" />
        </mxCell>
        <mxCell id="Wau2XaLZQkD78guUxSRD-143" style="edgeStyle=orthogonalEdgeStyle;rounded=0;orthogonalLoop=1;jettySize=auto;html=1;exitX=1;exitY=0.5;exitDx=0;exitDy=0;entryX=0;entryY=0.5;entryDx=0;entryDy=0;strokeColor=#FF0000;strokeWidth=2;" parent="1" source="Wau2XaLZQkD78guUxSRD-73" target="Wau2XaLZQkD78guUxSRD-6" edge="1">
          <mxGeometry relative="1" as="geometry" />
        </mxCell>
        <mxCell id="Wau2XaLZQkD78guUxSRD-73" value="" style="rounded=0;whiteSpace=wrap;html=1;rotation=-180;fillColor=#f5f5f5;fontColor=#333333;strokeColor=#666666;" parent="1" vertex="1">
          <mxGeometry x="380" y="116" width="130" height="60" as="geometry" />
        </mxCell>
        <mxCell id="Wau2XaLZQkD78guUxSRD-74" value="&lt;h1 style=&quot;box-sizing: border-box; padding: 0px; margin-top: 0px; margin-right: 0px; margin-left: 0px; text-rendering: optimizelegibility; font-weight: 400; color: rgb(15, 17, 17); font-family: Arial, sans-serif; line-height: 100%; margin-bottom: 0px !important;&quot; class=&quot;a-size-large a-spacing-none&quot;&gt;&lt;font style=&quot;font-size: 16px; background-color: rgb(245, 245, 245);&quot;&gt;Voltage Regulator&lt;/font&gt;&lt;/h1&gt;" style="text;html=1;strokeColor=none;fillColor=none;align=center;verticalAlign=middle;whiteSpace=wrap;rounded=0;" parent="1" vertex="1">
          <mxGeometry x="415" y="131" width="60" height="30" as="geometry" />
        </mxCell>
        <mxCell id="Wau2XaLZQkD78guUxSRD-78" value="" style="rounded=0;whiteSpace=wrap;html=1;rotation=0;" parent="1" vertex="1">
          <mxGeometry x="277" y="404.04" width="139" height="70.65" as="geometry" />
        </mxCell>
        <mxCell id="Wau2XaLZQkD78guUxSRD-79" value="&lt;p style=&quot;line-height: 140%;&quot;&gt;VCC&lt;br&gt;RX&lt;br&gt;TX&lt;br&gt;GND&lt;/p&gt;" style="text;html=1;strokeColor=none;fillColor=none;align=center;verticalAlign=middle;whiteSpace=wrap;rounded=0;" parent="1" vertex="1">
          <mxGeometry x="274" y="407.2" width="38" height="64.31" as="geometry" />
        </mxCell>
        <mxCell id="Wau2XaLZQkD78guUxSRD-81" value="&lt;font style=&quot;font-size: 16px;&quot;&gt;Bluetooth&lt;br&gt;&lt;span style=&quot;&quot;&gt;adapter&lt;/span&gt;&lt;br&gt;&lt;/font&gt;" style="text;html=1;strokeColor=none;fillColor=none;align=center;verticalAlign=middle;whiteSpace=wrap;rounded=0;" parent="1" vertex="1">
          <mxGeometry x="514" y="417.68" width="76" height="43.36" as="geometry" />
        </mxCell>
        <mxCell id="Wau2XaLZQkD78guUxSRD-87" value="&lt;font style=&quot;font-size: 16px;&quot;&gt;Bluetooth&amp;nbsp;to UART converter&lt;/font&gt;" style="text;html=1;strokeColor=none;fillColor=none;align=center;verticalAlign=middle;whiteSpace=wrap;rounded=0;" parent="1" vertex="1">
          <mxGeometry x="331" y="424.36" width="60" height="30" as="geometry" />
        </mxCell>
        <mxCell id="Wau2XaLZQkD78guUxSRD-89" value="&lt;p style=&quot;line-height: 140%;&quot;&gt;VCC&lt;br&gt;RX&lt;br&gt;TX&lt;br&gt;GND&lt;/p&gt;" style="text;html=1;strokeColor=none;fillColor=none;align=center;verticalAlign=middle;whiteSpace=wrap;rounded=0;" parent="1" vertex="1">
          <mxGeometry x="187.25" y="402.36" width="34" height="74" as="geometry" />
        </mxCell>
        <mxCell id="Wau2XaLZQkD78guUxSRD-92" value="&lt;font style=&quot;font-size: 12px;&quot;&gt;GND&lt;/font&gt;" style="text;html=1;strokeColor=none;fillColor=none;align=center;verticalAlign=middle;whiteSpace=wrap;rounded=0;" parent="1" vertex="1">
          <mxGeometry x="134" y="308.5" width="60" height="25" as="geometry" />
        </mxCell>
        <mxCell id="Wau2XaLZQkD78guUxSRD-93" value="&lt;font style=&quot;font-size: 12px;&quot;&gt;D13&lt;br&gt;(PORT B5)&lt;br&gt;&lt;/font&gt;" style="text;html=1;strokeColor=none;fillColor=none;align=center;verticalAlign=middle;whiteSpace=wrap;rounded=0;" parent="1" vertex="1">
          <mxGeometry x="57" y="306" width="69" height="25" as="geometry" />
        </mxCell>
        <mxCell id="Wau2XaLZQkD78guUxSRD-138" value="&lt;font style=&quot;font-size: 16px;&quot;&gt;USB&lt;/font&gt;" style="text;html=1;strokeColor=none;fillColor=none;align=center;verticalAlign=middle;whiteSpace=wrap;rounded=0;" parent="1" vertex="1">
          <mxGeometry x="601" y="413" width="60" height="30" as="geometry" />
        </mxCell>
        <mxCell id="Wau2XaLZQkD78guUxSRD-141" style="edgeStyle=orthogonalEdgeStyle;rounded=0;orthogonalLoop=1;jettySize=auto;html=1;exitX=1;exitY=0.5;exitDx=0;exitDy=0;entryX=1;entryY=0.61;entryDx=0;entryDy=0;entryPerimeter=0;strokeColor=#FF0000;strokeWidth=2;" parent="1" source="Wau2XaLZQkD78guUxSRD-6" target="Wau2XaLZQkD78guUxSRD-5" edge="1">
          <mxGeometry relative="1" as="geometry" />
        </mxCell>
        <mxCell id="Wau2XaLZQkD78guUxSRD-145" style="edgeStyle=orthogonalEdgeStyle;rounded=0;orthogonalLoop=1;jettySize=auto;html=1;exitX=0;exitY=0.5;exitDx=0;exitDy=0;entryX=0.003;entryY=0.646;entryDx=0;entryDy=0;entryPerimeter=0;strokeColor=#FF0000;strokeWidth=2;" parent="1" edge="1">
          <mxGeometry relative="1" as="geometry">
            <mxPoint x="713.2499999999998" y="146.41" as="sourcePoint" />
            <mxPoint x="509.3599999999999" y="145.65" as="targetPoint" />
          </mxGeometry>
        </mxCell>
      </root>
    </mxGraphModel>
  </diagram>
</mxfile>
